<svg width="21" height="21" viewBox="0 0 21 21" fill="none" xmlns="http://www.w3.org/2000/svg">
<path d="M11.7386 4.47031C14.0986 5.50031 15.3486 8.03031 14.9186 10.4603C16.1886 11.5603 16.9986 13.1903 16.9986 15.0003V15.1703C17.3086 15.0603 17.6486 15.0003 17.9986 15.0003C18.7942 15.0003 19.5573 15.3164 20.1199 15.879C20.6825 16.4416 20.9986 17.2047 20.9986 18.0003C20.9986 18.796 20.6825 19.559 20.1199 20.1216C19.5573 20.6842 18.7942 21.0003 17.9986 21.0003H4.99859C3.93773 21.0003 2.92031 20.5789 2.17017 19.8287C1.42002 19.0786 0.998594 18.0612 0.998594 17.0003C0.998594 15.9394 1.42002 14.922 2.17017 14.1719C2.92031 13.4217 3.93773 13.0003 4.99859 13.0003H5.26859C3.99859 11.4503 3.59859 9.24031 4.49859 7.26031C5.71859 4.50031 8.96859 3.24031 11.7386 4.47031ZM10.9286 6.30031C9.15859 5.50031 7.08859 6.31031 6.30859 8.07031C5.84859 9.09031 5.92859 10.2203 6.40859 11.1303C7.49859 9.83031 9.15859 9.00031 10.9986 9.00031C11.6986 9.00031 12.3786 9.12031 12.9986 9.34031C12.9386 8.06031 12.1786 6.86031 10.9286 6.30031ZM12.5486 2.64031C11.9986 2.40031 11.4486 2.23031 10.8786 2.12031L13.3686 0.820312L14.2686 3.71031C13.7586 3.29031 13.1886 2.93031 12.5486 2.64031ZM5.08859 3.44031C4.59859 3.79031 4.16859 4.19031 3.79859 4.63031L3.90859 1.82031L6.86859 2.50031C6.24859 2.71031 5.64859 3.03031 5.08859 3.44031ZM16.9986 8.71031C16.9086 8.12031 16.7786 7.55031 16.5886 7.00031L18.9686 8.50031L16.9186 10.7303C17.0286 10.0803 17.0486 9.40031 16.9986 8.71031ZM2.03859 10.3003C2.10859 10.9003 2.23859 11.4703 2.42859 12.0003L0.0585938 10.5003L2.09859 8.28031C1.99859 8.93031 1.96859 9.61031 2.03859 10.3003ZM17.9986 17.0003H14.9986V15.0003C14.9986 13.9394 14.5772 12.922 13.827 12.1719C13.0769 11.4217 12.0595 11.0003 10.9986 11.0003C9.93773 11.0003 8.92031 11.4217 8.17017 12.1719C7.42002 12.922 6.99859 13.9394 6.99859 15.0003H4.99859C4.46816 15.0003 3.95945 15.211 3.58438 15.5861C3.20931 15.9612 2.99859 16.4699 2.99859 17.0003C2.99859 17.5307 3.20931 18.0395 3.58438 18.4145C3.95945 18.7896 4.46816 19.0003 4.99859 19.0003H17.9986C18.2638 19.0003 18.5182 18.895 18.7057 18.7074C18.8932 18.5199 18.9986 18.2655 18.9986 18.0003C18.9986 17.7351 18.8932 17.4807 18.7057 17.2932C18.5182 17.1057 18.2638 17.0003 17.9986 17.0003Z" fill="#081B2E"/>
</svg>
