<svg width="19" height="19" viewBox="0 0 19 19" fill="none" xmlns="http://www.w3.org/2000/svg">
<path d="M12.0527 6.05364L2.05306 6.14221L2.01764 2.14236L12.0172 2.0538M9.14136 16.0798C8.34574 16.0869 7.57991 15.7776 7.01234 15.22C6.44477 14.6624 6.12195 13.9021 6.1149 13.1065C6.10786 12.3109 6.41716 11.5451 6.97476 10.9775C7.53236 10.4099 8.2926 10.0871 9.08821 10.0801C9.88383 10.073 10.6497 10.3823 11.2172 10.9399C11.7848 11.4975 12.1076 12.2577 12.1147 13.0534C12.1217 13.849 11.8124 14.6148 11.2548 15.1824C10.6972 15.75 9.93697 16.0728 9.14136 16.0798ZM13.9995 0.0361617L1.99992 0.142443C0.889965 0.152274 0.00797108 1.06012 0.0177135 2.16008L0.141708 16.1595C0.146406 16.6899 0.361617 17.1968 0.739997 17.5685C1.11838 17.9402 1.62893 18.1464 2.15934 18.1417L16.1588 18.0177C16.6892 18.013 17.196 17.7978 17.5678 17.4195C17.9395 17.0411 18.1457 16.5305 18.141 16.0001L18.0347 4.00058L13.9995 0.0361617Z" fill="#1C1E20"/>
</svg>
