<svg width="20" height="19" viewBox="0 0 20 19" fill="none" xmlns="http://www.w3.org/2000/svg">
<path d="M13.332 6.49935H17.9154L13.332 1.91602V6.49935ZM5.83203 0.666016H14.1654L19.1654 5.66602V13.9993C19.1654 14.4414 18.9898 14.8653 18.6772 15.1779C18.3646 15.4904 17.9407 15.666 17.4987 15.666H5.83203C4.90703 15.666 4.16536 14.916 4.16536 13.9993V2.33268C4.16536 1.89065 4.34096 1.46673 4.65352 1.15417C4.96608 0.84161 5.39 0.666016 5.83203 0.666016ZM2.4987 3.99935V17.3327H17.4987V18.9993H2.4987C2.05667 18.9993 1.63275 18.8238 1.32019 18.5112C1.00763 18.1986 0.832031 17.7747 0.832031 17.3327V3.99935H2.4987Z" fill="#081B2E"/>
</svg>
