<svg width="57" height="57" viewBox="0 0 57 57" fill="none" xmlns="http://www.w3.org/2000/svg">
<circle cx="28.5" cy="28.5" r="28.5" fill="white"/>
<path d="M25.1111 30.6667L27.8889 34L31.7778 29L36.7778 35.6667H21.2222M39 36.7778V21.2222C39 19.9889 38 19 36.7778 19H21.2222C20.6329 19 20.0676 19.2341 19.6509 19.6509C19.2341 20.0676 19 20.6329 19 21.2222V36.7778C19 37.3671 19.2341 37.9324 19.6509 38.3491C20.0676 38.7659 20.6329 39 21.2222 39H36.7778C37.3671 39 37.9324 38.7659 38.3491 38.3491C38.7659 37.9324 39 37.3671 39 36.7778Z" fill="#EFB90B"/>
</svg>
