<svg width="20" height="19" viewBox="0 0 20 19" fill="none" xmlns="http://www.w3.org/2000/svg">
<path d="M11.8008 3.20078C11.0008 3.00078 10.2008 3.00078 9.40078 3.00078L12.6008 0.300781L14.0008 4.30078C13.3008 3.80078 12.6008 3.50078 11.8008 3.20078ZM5.00078 5.10078C5.60078 4.50078 6.30078 4.00078 7.00078 3.70078L2.90078 2.90078L3.60078 7.00078C4.00078 6.30078 4.40078 5.60078 5.00078 5.10078ZM3.20078 11.8008C3.00078 11.0008 3.00078 10.2008 3.00078 9.40078L0.300781 12.6008L4.30078 14.0008C3.80078 13.4008 3.40078 12.6008 3.20078 11.8008ZM20.0008 17.0008V19.0008H1.00078L6.40078 13.5008C4.50078 11.5008 4.50078 8.40078 6.40078 6.40078C8.30078 4.50078 11.5008 4.50078 13.4008 6.40078L16.4008 3.40078L17.8008 4.80078L5.70078 17.0008H20.0008Z" fill="#081B2E"/>
</svg>
