<svg width="57" height="57" viewBox="0 0 57 57" fill="none" xmlns="http://www.w3.org/2000/svg">
<circle cx="28.5" cy="28.5" r="28.5" fill="white"/>
<path d="M36.7778 19H21.2222C20 19 19 20 19 21.2222V36.7778C19 38 20 39 21.2222 39H36.7778C38 39 39 38 39 36.7778V21.2222C39 20 38 19 36.7778 19ZM26.2222 28.4444C26.2222 29.3333 25.4444 30.1111 24.5556 30.1111H23.4444V32.3333H21.7778V25.6667H24.5556C25.4444 25.6667 26.2222 26.4444 26.2222 27.3333V28.4444ZM31.7778 30.6667C31.7778 31.5556 31 32.3333 30.1111 32.3333H27.3333V25.6667H30.1111C31 25.6667 31.7778 26.4444 31.7778 27.3333V30.6667ZM36.2222 27.3333H34.5556V28.4444H36.2222V30.1111H34.5556V32.3333H32.8889V25.6667H36.2222V27.3333ZM29 27.3333H30.1111V30.6667H29V27.3333ZM23.4444 27.3333H24.5556V28.4444H23.4444V27.3333Z" fill="#EFB90B"/>
</svg>
