<svg width="35" height="35" viewBox="0 0 35 35" fill="none" xmlns="http://www.w3.org/2000/svg">
<rect width="35" height="35" rx="5" fill="#EFB90B"/>
<path d="M15.6875 9.84375C17.1959 9.84375 18.6426 10.443 19.7092 11.5096C20.7758 12.5762 21.375 14.0228 21.375 15.5312C21.375 16.94 20.8587 18.235 20.01 19.2325L20.2463 19.4688H20.9375L25.3125 23.8438L24 25.1562L19.625 20.7812V20.09L19.3888 19.8537C18.3912 20.7025 17.0963 21.2188 15.6875 21.2188C14.1791 21.2188 12.7324 20.6195 11.6658 19.5529C10.5992 18.4863 10 17.0397 10 15.5312C10 14.0228 10.5992 12.5762 11.6658 11.5096C12.7324 10.443 14.1791 9.84375 15.6875 9.84375ZM15.6875 11.5938C13.5 11.5938 11.75 13.3438 11.75 15.5312C11.75 17.7188 13.5 19.4688 15.6875 19.4688C17.875 19.4688 19.625 17.7188 19.625 15.5312C19.625 13.3438 17.875 11.5938 15.6875 11.5938Z" fill="#001522"/>
</svg>
