<svg width="46" height="49" viewBox="0 0 46 49" fill="none" xmlns="http://www.w3.org/2000/svg">
<path d="M22.9258 8.96875V10.1868" stroke="#EFB90B" stroke-linecap="round" stroke-linejoin="round"/>
<path d="M27.6324 10.9316L26.7734 11.786" stroke="#EFB90B" stroke-linecap="round" stroke-linejoin="round"/>
<path d="M29.5798 15.6504H28.3672" stroke="#EFB90B" stroke-linecap="round" stroke-linejoin="round"/>
<path d="M27.6324 20.3784L26.7734 19.5156" stroke="#EFB90B" stroke-linecap="round" stroke-linejoin="round"/>
<path d="M22.9258 22.3346V21.125" stroke="#EFB90B" stroke-linecap="round" stroke-linejoin="round"/>
<path d="M18.2188 20.3784L19.0777 19.5156" stroke="#EFB90B" stroke-linecap="round" stroke-linejoin="round"/>
<path d="M16.2734 15.6504H17.4861" stroke="#EFB90B" stroke-linecap="round" stroke-linejoin="round"/>
<path d="M18.2188 10.9316L19.0777 11.786" stroke="#EFB90B" stroke-linecap="round" stroke-linejoin="round"/>
<path d="M22.9255 18.6867C24.5951 18.6867 25.9487 17.3271 25.9487 15.65C25.9487 13.9729 24.5951 12.6133 22.9255 12.6133C21.2559 12.6133 19.9023 13.9729 19.9023 15.65C19.9023 17.3271 21.2559 18.6867 22.9255 18.6867Z" stroke="#EFB90B" stroke-linecap="round" stroke-linejoin="round"/>
<path d="M30.7764 23.6202C35.0943 19.2829 35.081 12.2374 30.7466 7.88354C26.4122 3.52971 19.3981 3.51632 15.0801 7.85363C10.7621 12.1909 10.7755 19.2365 15.1099 23.5903C19.4443 27.9442 26.4584 27.9576 30.7764 23.6202Z" stroke="#EFB90B" stroke-linecap="round" stroke-linejoin="round"/>
<path d="M10.3672 44.074L15.4198 32.1133" stroke="#EFB90B" stroke-linecap="round" stroke-linejoin="round"/>
<path d="M29.5859 32.1133L35.4807 44.074" stroke="#EFB90B" stroke-linecap="round" stroke-linejoin="round"/>
<path d="M22.9219 32.1387V44.074" stroke="#EFB90B" stroke-linecap="round" stroke-linejoin="round"/>
<path d="M44.7434 44.4961H1.10547L8.68442 31.6895H36.3223L44.7434 44.4961Z" stroke="#EFB90B" stroke-linecap="round" stroke-linejoin="round"/>
<path d="M44.7434 44.4961V47.998H1.10547V44.4961" stroke="#EFB90B" stroke-linecap="round" stroke-linejoin="round"/>
<path d="M7.13672 35.2012H38.2272" stroke="#EFB90B" stroke-linecap="round" stroke-linejoin="round"/>
<path d="M4.57422 39.4316H41.2732" stroke="#EFB90B" stroke-linecap="round" stroke-linejoin="round"/>
</svg>
