<svg width="20" height="20" viewBox="0 0 20 20" fill="none" xmlns="http://www.w3.org/2000/svg">
<path d="M1.32812 14H8.99813V11H1.99813L1.32812 14Z" fill="#081B2E"/>
<path d="M11 14H18.67L18 11H11V14Z" fill="#081B2E"/>
<path d="M19.11 16H11V20H20L19.11 16Z" fill="#081B2E"/>
<path d="M0 20H9V16H0.89L0 20Z" fill="#081B2E"/>
<path d="M11 6H9V9H11V6Z" fill="#081B2E"/>
<path d="M15.1798 3.79088L13.7656 5.20508L15.8869 7.32638L17.3011 5.91218L15.1798 3.79088Z" fill="#081B2E"/>
<path d="M4.82442 3.79081L2.70312 5.91211L4.11733 7.32631L6.23863 5.20501L4.82442 3.79081Z" fill="#081B2E"/>
<path d="M4 0H1V2H4V0Z" fill="#081B2E"/>
<path d="M19 0H16V2H19V0Z" fill="#081B2E"/>
<path d="M10 5C12.76 5 15 2.76 15 0H5C5 2.76 7.24 5 10 5Z" fill="#081B2E"/>
</svg>
