<svg width="20" height="20" viewBox="0 0 20 20" fill="none" xmlns="http://www.w3.org/2000/svg">
<path d="M13.8889 15.5556H12.2222L10 7.22222L7.77778 15.5556H6.11111L3.44444 4.44444H5.33333L7.04445 12.7778L9.22222 4.44444H10.7778L12.9667 12.7778L14.6667 4.44444H16.5556M17.7778 0H2.22222C0.988889 0 0 0.988889 0 2.22222V17.7778C0 18.3671 0.234126 18.9324 0.650874 19.3491C1.06762 19.7659 1.63285 20 2.22222 20H17.7778C18.3671 20 18.9324 19.7659 19.3491 19.3491C19.7659 18.9324 20 18.3671 20 17.7778V2.22222C20 0.988889 19 0 17.7778 0Z" fill="#EFB90B"/>
</svg>
