<svg width="57" height="57" viewBox="0 0 57 57" fill="none" xmlns="http://www.w3.org/2000/svg">
<circle cx="28.5" cy="28.5" r="28.5" fill="white"/>
<path d="M32.8889 34.5556H31.2222L29 26.2222L26.7778 34.5556H25.1111L22.4444 23.4444H24.3333L26.0444 31.7778L28.2222 23.4444H29.7778L31.9667 31.7778L33.6667 23.4444H35.5556M36.7778 19H21.2222C19.9889 19 19 19.9889 19 21.2222V36.7778C19 37.3671 19.2341 37.9324 19.6509 38.3491C20.0676 38.7659 20.6329 39 21.2222 39H36.7778C37.3671 39 37.9324 38.7659 38.3491 38.3491C38.7659 37.9324 39 37.3671 39 36.7778V21.2222C39 19.9889 38 19 36.7778 19Z" fill="#EFB90B"/>
</svg>
