<svg width="18" height="18" viewBox="0 0 18 18" fill="none" xmlns="http://www.w3.org/2000/svg">
<path d="M17.0897 15.9077L15.9064 17.091C15.7503 17.2462 15.539 17.3333 15.3189 17.3333C15.0987 17.3333 14.8875 17.2462 14.7314 17.091L4.83139 7.20768C4.5604 7.28619 4.28015 7.32823 3.99806 7.33268C3.46748 7.3323 2.94465 7.20527 2.47305 6.96215C2.00145 6.71903 1.59469 6.36684 1.28661 5.93487C0.978523 5.5029 0.778006 5.00362 0.701728 4.47856C0.625451 3.95349 0.675618 3.41779 0.848056 2.91602L2.96472 5.03268L3.40639 4.59102L4.58972 3.40768L5.03139 2.96602L2.91472 0.849349C3.4165 0.67691 3.95219 0.626744 4.47726 0.703021C5.00233 0.779298 5.50161 0.979815 5.93358 1.2879C6.36555 1.59599 6.71774 2.00274 6.96086 2.47434C7.20398 2.94594 7.33101 3.46877 7.33139 3.99935C7.32693 4.28145 7.2849 4.56169 7.20639 4.83268L17.0897 14.7327C17.2449 14.8888 17.3321 15.1 17.3321 15.3202C17.3321 15.5403 17.2449 15.7515 17.0897 15.9077ZM0.90639 14.7327C0.751181 14.8888 0.664063 15.1 0.664062 15.3202C0.664062 15.5403 0.751181 15.7515 0.90639 15.9077L2.08972 17.091C2.24586 17.2462 2.45707 17.3333 2.67722 17.3333C2.89738 17.3333 3.10859 17.2462 3.26472 17.091L7.82306 12.541L5.46472 10.1827M15.6647 0.666016L12.3314 2.33268V3.99935L10.5231 5.80768L12.1897 7.47435L13.9981 5.66602H15.6647L17.3314 2.33268L15.6647 0.666016Z" fill="#081B2E"/>
</svg>
