<?xml version="1.0" encoding="UTF-8"?>
<!-- Created with Inkscape (http://www.inkscape.org/) -->
<svg width="643.7852" height="177.4457" version="1.1" viewBox="0 0 643.7852 177.4457" xmlns="http://www.w3.org/2000/svg" xmlns:xlink="http://www.w3.org/1999/xlink">
 <defs>
  <clipPath id="clipPath2">
   <path transform="translate(-310.8133 -392.4397)" d="M 0,841.89 H 595.276 V 0 H 0 Z"/>
  </clipPath>
  <clipPath id="clipPath4">
   <path transform="translate(-315.0947 -392.714)" d="M 0,841.89 H 595.276 V 0 H 0 Z"/>
  </clipPath>
  <clipPath id="clipPath6">
   <path transform="translate(-315.4914 -466.8621)" d="M 0,841.89 H 595.276 V 0 H 0 Z"/>
  </clipPath>
  <clipPath id="clipPath8">
   <path transform="translate(-315.4914 -478.6443)" d="M 0,841.89 H 595.276 V 0 H 0 Z"/>
  </clipPath>
  <clipPath id="clipPath10">
   <path transform="translate(-308.3755 -487.1505)" d="M 0,841.89 H 595.276 V 0 H 0 Z"/>
  </clipPath>
  <clipPath id="clipPath12">
   <path transform="translate(-310.0249 -466.8621)" d="M 0,841.89 H 595.276 V 0 H 0 Z"/>
  </clipPath>
  <clipPath id="clipPath14">
   <path transform="translate(-321.2668 -372.8412)" d="M 0,841.89 H 595.276 V 0 H 0 Z"/>
  </clipPath>
  <clipPath id="clipPath16">
   <path transform="translate(-317.7955 -498.773)" d="M 0,841.89 H 595.276 V 0 H 0 Z"/>
  </clipPath>
  <clipPath id="clipPath18">
   <path transform="translate(-322.6029 -493.5345)" d="M 0,841.89 H 595.276 V 0 H 0 Z"/>
  </clipPath>
  <clipPath id="clipPath20">
   <path transform="translate(-305.9683 -375.2716)" d="M 0,841.89 H 595.276 V 0 H 0 Z"/>
  </clipPath>
  <clipPath id="clipPath22">
   <path transform="translate(-314.1471 -368.6287)" d="M 0,841.89 H 595.276 V 0 H 0 Z"/>
  </clipPath>
  <clipPath id="clipPath24">
   <path transform="translate(-308.4083 -373.9837)" d="M 0,841.89 H 595.276 V 0 H 0 Z"/>
  </clipPath>
  <clipPath id="clipPath26">
   <path transform="translate(-314.6968 -392.4397)" d="M 0,841.89 H 595.276 V 0 H 0 Z"/>
  </clipPath>
  <clipPath id="clipPath30">
   <path transform="translate(-339.8395 -423.5953)" d="M 0,841.89 H 595.276 V 0 H 0 Z"/>
  </clipPath>
  <clipPath id="clipPath32">
   <path transform="translate(-286.6726 -428.4007)" d="M 0,841.89 H 595.276 V 0 H 0 Z"/>
  </clipPath>
  <clipPath id="clipPath34">
   <path transform="translate(-319.7386 -462.6572)" d="M 0,841.89 H 595.276 V 0 H 0 Z"/>
  </clipPath>
  <clipPath id="clipPath36">
   <path transform="translate(-333.6387 -442.6777)" d="M 0,841.89 H 595.276 V 0 H 0 Z"/>
  </clipPath>
  <clipPath id="clipPath38">
   <path transform="translate(-292.2383 -447.441)" d="M 0,841.89 H 595.276 V 0 H 0 Z"/>
  </clipPath>
 </defs>
 <g transform="translate(-38.03125 -453.5693)">
  <g fill="none" stroke="#010101" stroke-miterlimit="10">
   <path transform="matrix(1.333333 0 0 -1.333333 414.4177 599.2671)" d="m0 0c-20.834 0-37.728 16.89-37.728 37.728s16.894 37.727 37.728 37.727" clip-path="url(#clipPath2)" stroke-width="2"/>
   <path transform="matrix(1.333333 0 0 -1.333333 420.1263 598.9013)" d="m0 0v-7.019l4.089-4.335v-5.521" clip-path="url(#clipPath4)" stroke-linecap="square" stroke-width="1.5"/>
   <g>
    <path transform="matrix(1.333333 0 0 -1.333333 420.6552 500.0372)" d="m0 0v11.467l5.029 5.029v8.832" clip-path="url(#clipPath6)" stroke-width="1.5"/>
    <path transform="matrix(1.333333 0 0 -1.333333 420.6552 484.3276)" d="m0 0v18.053" clip-path="url(#clipPath8)" stroke-width="1.5"/>
    <path transform="matrix(1.333333 0 0 -1.333333 411.1673 472.986)" d="m0 0c0-1.348-1.092-2.44-2.44-2.44s-2.44 1.092-2.44 2.44 1.092 2.44 2.44 2.44 2.44-1.092 2.44-2.44z" clip-path="url(#clipPath10)"/>
    <path transform="matrix(1.333333 0 0 -1.333333 413.3665 500.0372)" d="m0 0v5.152l-4.089 4.336v8.67" clip-path="url(#clipPath12)" stroke-width="1.5"/>
    <path transform="matrix(1.333333 0 0 -1.333333 428.3557 625.3984)" d="m0 0c0-1.15-0.932-2.083-2.083-2.083-1.15 0-2.082 0.933-2.082 2.083s0.932 2.083 2.082 2.083c1.151 0 2.083-0.933 2.083-2.083z" clip-path="url(#clipPath14)"/>
   </g>
   <path transform="matrix(1.333333 0 0 -1.333333 423.7273 457.4893)" d="m0 0c0-1.348-1.092-2.44-2.44-2.44s-2.44 1.092-2.44 2.44 1.092 2.44 2.44 2.44 2.44-1.092 2.44-2.44z" clip-path="url(#clipPath16)" stroke-linecap="square"/>
  </g>
  <path transform="matrix(1.333333 0 0 -1.333333 430.1372 464.474)" d="m0 0c0-1.15-0.932-2.083-2.083-2.083-1.15 0-2.082 0.933-2.082 2.083s0.932 2.083 2.082 2.083c1.151 0 2.083-0.933 2.083-2.083" clip-path="url(#clipPath18)" fill="#010101"/>
  <g stroke="#010101" stroke-miterlimit="10">
   <path transform="matrix(1.333333 0 0 -1.333333 407.9577 622.1579)" d="m0 0v5.152l4.089 4.336v8.67" clip-path="url(#clipPath20)" fill="none" stroke-width="1.5"/>
   <path transform="matrix(1.333333 0 0 -1.333333 418.8628 631.0151)" d="m0 0v5.152l-4.089 4.336v8.67" clip-path="url(#clipPath22)" fill="none" stroke-width="1.5"/>
   <path transform="matrix(1.333333 0 0 -1.333333 411.2111 623.8751)" d="m0 0c0-1.348-1.092-2.44-2.44-2.44s-2.44 1.092-2.44 2.44 1.092 2.44 2.44 2.44 2.44-1.092 2.44-2.44" clip-path="url(#clipPath24)" fill="#010101"/>
   <path transform="matrix(1.333333 0 0 -1.333333 419.5957 599.2671)" d="m0 0c20.834 0 37.728 16.89 37.728 37.728s-16.894 37.727-37.728 37.727" clip-path="url(#clipPath26)" fill="none" stroke-width="2"/>
  </g>
  <g fill="#010101">
   <path transform="matrix(1.333333 0 0 1.333333 33.5612 601.7388)" d="m85.81738-3.890625e-4h-4.078125l-24.57422-82.33594h-0.234375l-24.09375 82.33594h-4.078125l-25.40625-84.85547h2.765625l24.44531 82.45313h0.363281l24.08203-82.45313h4.078125l24.5625 82.45313h0.363282l24.44532-82.45313h2.76562zm74.53711-12.46875c0 2.080078 0.0967 4.297852 0.29297 6.65625 0.20215 2.361328 0.4248 4.297852 0.66797 5.8125h-2.51953c-0.16407-0.796875-0.28711-1.772461-0.36328-2.929688-0.0791-1.163086-0.18165-2.361328-0.30469-3.597656-0.11719-1.242188-0.19629-2.460938-0.23438-3.65625-0.041-1.201172-0.0586-2.203125-0.0586-3h-0.36328c-1.59375 5.033203-4.34766 8.765625-8.26172 11.20313-3.91406 2.4375-8.10938 3.65625-12.58594 3.65625-2.23535 0-4.45312-0.3222656-6.65625-0.9609375-2.19726-0.6328125-4.17187-1.587891-5.92969-2.871094-1.75781-1.280273-3.17578-2.917969-4.2539-4.910156-1.07813-1.998047-1.61719-4.359375-1.61719-7.078125 0-3.914063 1.01953-7.069336 3.05859-9.46875 2.03907-2.396485 4.57325-4.253907 7.60547-5.566407 3.03809-1.318359 6.2959-2.179687 9.77344-2.578125 3.47461-0.398437 6.65039-0.597656 9.52734-0.597656h9.58594v-4.441406c0-6.146484-1.64062-10.64062-4.92187-13.47656-3.27539-2.835937-7.54688-4.253906-12.82032-4.253906-3.27539 0-6.32812 0.603516-9.16406 1.804688-2.83594 1.195312-5.37305 2.789062-7.60547 4.78125l-1.4414-2.039063c2.55468-2.232422 5.44922-3.928711 8.68359-5.085937 3.23438-1.163086 6.41016-1.746094 9.52734-1.746094 6.31055 0 11.28516 1.623047 14.91797 4.863281 3.63867 3.234375 5.46094 8.329102 5.46094 15.28125zm-2.63672-17.61328h-8.50781c-3.04102 0-6.24024 0.18164-9.59766 0.539062-3.35156 0.360352-6.42773 1.098633-9.22265 2.214844-2.79785 1.119141-5.09473 2.71582-6.89063 4.792969-1.79883 2.080078-2.69531 4.875-2.69531 8.390625 0 2.554687 0.49805 4.693359 1.5 6.410156 0.99902 1.719727 2.27637 3.099609 3.83203 4.136719 1.56152 1.040039 3.28125 1.801758 5.15625 2.285156 1.875 0.4775391 3.65039 0.7148438 5.33203 0.7148438 4.07813 0 7.4707-0.7558594 10.1836-2.273437 2.71875-1.523438 4.89257-3.459961 6.52734-5.8125 1.64062-2.358398 2.78027-4.957031 3.42187-7.792969 0.63868-2.835937 0.96094-5.613281 0.96094-8.332031zm46.26563 30.19922c-0.96094 0.3984375-2.08301 0.7177734-3.36328 0.9609375-1.27442 0.2402344-2.51368 0.3632813-3.71485 0.3632813-4.3125 0-7.41211-1.21875-9.29297-3.65625-1.875-2.4375-2.8125-5.496094-2.8125-9.175781v-41.46094h-11.97656v-2.273437h11.85938v-16.18359h2.7539v16.18359h16.1836v2.273437h-16.1836v41.46094c0 3.758789 0.91699 6.457031 2.75391 8.097656 1.84277 1.634766 4.28027 2.449219 7.3125 2.449219 2.24121 0 4.28027-0.3574218 6.11719-1.078125zm34.99218 0c-0.96093 0.3984375-2.083 0.7177734-3.36328 0.9609375-1.27441 0.2402344-2.51367 0.3632813-3.71484 0.3632813-4.3125 0-7.41211-1.21875-9.29297-3.65625-1.875-2.4375-2.8125-5.496094-2.8125-9.175781v-41.46094h-11.97656v-2.273437h11.85937v-16.18359h2.75391v16.18359h16.18359v2.273437h-16.18359v41.46094c0 3.758789 0.91699 6.457031 2.75391 8.097656 1.84277 1.634766 4.28027 2.449219 7.3125 2.449219 2.24121 0 4.28027-0.3574218 6.11718-1.078125z" aria-label="Watt"/>
   <path transform="matrix(1.333333 0 0 1.333333 474.8867 601.6033)" d="m28.04301-0.00132812h-3.46875l-21.70313-55.125h2.882812l20.49609 52.48828h0.234375l19.78125-52.48828h2.871094zm34.03711-28.16016c0 3.351562 0.498047 6.667968 1.5 9.949218 0.999024 3.275391 2.513672 6.210938 4.546875 8.8125 2.039063 2.595703 4.617188 4.693359 7.734375 6.292969 3.117188 1.59375 6.791016 2.390625 11.02734 2.390625 4.3125 0 8.144531-0.8583984 11.49609-2.578125 3.357425-1.716797 6.275395-4.212891 8.753905-7.488281l1.92188 1.675781c-2.71875 3.515625-5.89454 6.193359-9.527348 8.027344-3.632812 1.833984-7.848633 2.753906-12.64453 2.753906-4.078125 0-7.798828-0.7382812-11.15625-2.214844-3.351563-1.476562-6.246094-3.530273-8.683594-6.164062-2.43164-2.639648-4.30664-5.794922-5.625-9.46875-1.321289-3.679688-1.980469-7.675781-1.980469-11.98828 0-4.154297 0.679688-7.992188 2.039063-11.50781s3.213867-6.550781 5.566406-9.105469c2.358399-2.560546 5.135742-4.541015 8.332031-5.941406 3.19336-1.397461 6.632813-2.097656 10.3125-2.097656 4.3125 0 8.06543 0.761719 11.26172 2.285156 3.193363 1.517578 5.850583 3.512695 7.968753 5.988281 2.11523 2.478516 3.69433 5.293946 4.73437 8.449219 1.03711 3.158203 1.5586 6.37207 1.5586 9.644531v2.285157zm46.61718-2.285157c-0.0791-3.591796-0.69726-6.867187-1.85156-9.820312-1.15722-2.958984-2.73633-5.499024-4.73437-7.617188-2.00098-2.115234-4.400393-3.752929-7.195315-4.910156-2.797852-1.154297-5.91211-1.734375-9.339844-1.734375-4.157227 0-7.716797 0.861328-10.67578 2.578125-2.953125 1.710938-5.373047 3.829102-7.253907 6.351563-1.875 2.516601-3.254882 5.15332-4.136718 7.910156-0.875977 2.750976-1.3125 5.165039-1.3125 7.242187zm25.28907-10.18359c1.59961-5.748047 4.16015-9.881836 7.67578-12.39844 3.51562-2.522461 7.30664-3.785156 11.3789-3.785156h1.07813c0.31934 0 0.67969 0.04395 1.07812 0.128906v2.273438c-0.32226-0.07617-0.62109-0.117188-0.90234-0.117188h-0.65625c-3.51562 0-6.51269 0.782227-8.98828 2.34375-2.47852 1.555664-4.51758 3.591797-6.11719 6.105469-1.59375 2.516601-2.77148 5.314453-3.52734 8.390625-0.75879 3.070312-1.13672 6.125976-1.13672 9.164062v28.52344h-2.63672v-41.22656c0-0.881836-0.0205-1.959961-0.0586-3.234375-0.041-1.280273-0.082-2.578125-0.12891-3.890625-0.041-1.318359-0.0996-2.578125-0.17578-3.773437-0.0791-1.201172-0.1582-2.203125-0.23438-3h2.63672c0.0762 0.796875 0.13477 1.798828 0.17578 3 0.0381 1.195312 0.0762 2.493164 0.11719 3.890625 0.0381 1.400391 0.0762 2.759766 0.11719 4.078125 0.0469 1.3125 0.0703 2.490234 0.0703 3.527344z" aria-label="ver"/>
   <path transform="matrix(1.333333 0 0 -1.333333 453.1193 557.7263)" d="m0 0c0.07-1.471 0.044-3.434-0.326-5.706-0.224-1.373-0.621-3.703-1.902-6.467-0.593-1.28-1.958-3.906-4.565-6.521-2.544-2.552-5.035-3.854-5.869-4.266-0.476-0.236-1.964-0.951-4.049-1.522-2.399-0.658-4.492-0.825-6.005-0.842 0.741 1.921 1.574 3.527 2.337 4.809 1.31 2.202 2.564 3.702 3.315 4.592 1.747 2.071 3.284 3.442 3.695 3.804 1.304 1.148 3.096 2.546 5.408 3.886-1.19-1.061-2.693-2.492-4.322-4.293-0.598-0.661-1.629-1.806-2.798-3.343-1.202-1.581-2.714-3.795-4.184-6.657 1.682 0.266 3.793 0.821 6.005 1.984 0.656 0.345 2.02 1.111 3.532 2.391 0.698 0.591 2.187 1.934 3.614 4.021 1.135 1.66 1.749 3.085 2.147 4.022 0.552 1.3 0.869 2.344 1.168 3.342 0.475 1.581 0.781 2.937 0.978 3.94-1.951-0.313-3.535-0.551-4.592-0.706-3.1-0.457-3.963-0.543-5.516-0.951-1.361-0.359-2.454-0.653-3.804-1.359-1.954-1.021-3.165-2.233-3.478-2.554-1.419-1.46-2.113-2.871-2.853-4.375-0.331-0.674-0.93-1.906-1.413-3.587-0.42-1.464-0.909-3.787-0.738-6.753-0.36 1.868-0.827 5.739 0.765 10.15 0.456 1.262 2.325 6.439 7.31 9.293 1.7 0.973 4.014 1.464 8.64 2.445 3.101 0.658 5.696 1.074 7.5 1.332" clip-path="url(#clipPath30)"/>
   <path transform="matrix(1.333333 0 0 -1.333333 382.2301 551.3191)" d="m0 0c-0.069-1.453-0.044-3.392 0.322-5.636 0.221-1.357 0.613-3.658 1.879-6.388 0.586-1.264 1.933-3.858 4.509-6.442 2.512-2.52 4.974-3.806 5.797-4.214 0.47-0.232 1.94-0.938 3.999-1.503 2.37-0.649 4.438-0.814 5.932-0.832-0.732 1.898-1.555 3.484-2.308 4.751-1.294 2.175-2.533 3.657-3.275 4.536-1.725 2.046-3.243 3.399-3.65 3.758-1.288 1.133-3.058 2.515-5.341 3.838 1.175-1.049 2.659-2.462 4.269-4.241 0.591-0.653 1.609-1.784 2.763-3.301 1.188-1.563 2.681-3.749 4.133-6.576-1.661 0.263-3.746 0.81-5.931 1.959-0.649 0.341-1.995 1.097-3.489 2.362-0.69 0.584-2.16 1.911-3.57 3.972-1.121 1.639-1.727 3.047-2.12 3.973-0.546 1.284-0.859 2.315-1.155 3.301-0.468 1.562-0.77 2.901-0.966 3.892 1.928-0.309 3.492-0.544 4.536-0.698 3.063-0.451 3.915-0.536 5.449-0.94 1.344-0.354 2.424-0.645 3.757-1.342 1.93-1.008 3.127-2.205 3.436-2.522 1.402-1.442 2.087-2.836 2.818-4.322 0.327-0.666 0.919-1.883 1.395-3.542 0.416-1.447 0.898-3.742 0.729-6.671 0 0 1e-3 -1e-3 1e-3 0 0.355 1.845 0.816 5.669-0.756 10.025-0.45 1.247-2.297 6.361-7.22 9.18-1.68 0.961-3.965 1.446-8.535 2.415-3.063 0.65-5.626 1.061-7.408 1.315" clip-path="url(#clipPath32)"/>
   <path transform="matrix(1.333333 0 0 -1.333333 426.3181 505.6437)" d="m0 0c0.337-0.824 0.718-1.948 0.966-3.319 0.15-0.828 0.394-2.236 0.221-4.071-0.08-0.849-0.327-2.622-1.286-4.639-0.935-1.968-2.092-3.213-2.484-3.617-0.224-0.23-0.928-0.938-2.001-1.685-1.235-0.859-2.395-1.377-3.254-1.692 0.035 1.245 0.186 2.328 0.362 3.213 0.302 1.52 0.714 2.629 0.962 3.288 0.578 1.533 1.178 2.625 1.339 2.914 0.512 0.918 1.251 2.077 2.298 3.307-0.463-0.845-1.031-1.964-1.597-3.32-0.207-0.497-0.564-1.358-0.92-2.47-0.366-1.145-0.781-2.712-1.041-4.64 0.905 0.491 1.996 1.233 3.023 2.343 0.304 0.329 0.927 1.041 1.531 2.076 0.278 0.478 0.856 1.544 1.248 3.023 0.312 1.175 0.374 2.111 0.412 2.726 0.052 0.852 0.022 1.511-9e-3 2.141-0.048 0.997-0.148 1.832-0.237 2.443-1.05-0.572-1.905-1.027-2.476-1.329-1.675-0.887-2.15-1.11-2.952-1.656-0.704-0.479-1.267-0.868-1.895-1.543-0.908-0.976-1.354-1.912-1.467-2.158-0.515-1.119-0.625-2.063-0.743-3.07-0.053-0.451-0.146-1.274-0.082-2.33 0.056-0.92 0.247-2.343 0.943-3.999-0.582 0.992-1.63 3.105-1.613 5.941 5e-3 0.811 0.025 4.14 2.291 6.773 0.773 0.899 1.993 1.645 4.432 3.139 1.635 1.001 3.031 1.762 4.007 2.273" clip-path="url(#clipPath34)"/>
   <path transform="matrix(1.333333 0 0 -1.333333 444.8516 532.2831)" d="m0 0c0.052-1.1 0.033-2.567-0.244-4.266-0.167-1.027-0.464-2.768-1.422-4.835-0.443-0.956-1.463-2.92-3.413-4.875-1.901-1.908-3.764-2.881-4.387-3.19-0.356-0.176-1.469-0.71-3.027-1.137-1.794-0.492-3.359-0.617-4.49-0.63 0.554 1.436 1.177 2.637 1.747 3.596 0.98 1.646 1.917 2.767 2.479 3.433 1.306 1.548 2.455 2.573 2.762 2.844 0.975 0.858 2.315 1.903 4.043 2.905-0.889-0.794-2.013-1.863-3.231-3.21-0.447-0.494-1.218-1.35-2.091-2.499-0.899-1.182-2.03-2.837-3.129-4.977 1.258 0.199 2.836 0.614 4.49 1.483 0.49 0.258 1.51 0.831 2.641 1.788 0.521 0.442 1.634 1.446 2.701 3.007 0.848 1.24 1.308 2.306 1.605 3.006 0.413 0.972 0.65 1.753 0.874 2.499 0.354 1.182 0.583 2.195 0.731 2.945-1.459-0.234-2.643-0.412-3.433-0.528-2.318-0.341-2.963-0.405-4.124-0.711-1.018-0.268-1.835-0.488-2.844-1.016-1.461-0.763-2.367-1.669-2.6-1.909-1.062-1.091-1.58-2.146-2.133-3.271-0.248-0.504-0.696-1.425-1.057-2.681-0.314-1.095-0.679-2.832-0.551-5.049-0.269 1.396-0.619 4.291 0.572 7.588 0.34 0.944 1.738 4.814 5.464 6.948 1.272 0.727 3.001 1.094 6.46 1.828 2.318 0.492 4.258 0.802 5.607 0.995" clip-path="url(#clipPath36)"/>
   <path transform="matrix(1.333333 0 0 -1.333333 389.6511 525.932)" d="m0 0c-0.052-1.1-0.033-2.567 0.244-4.266 0.167-1.027 0.464-2.768 1.422-4.835 0.443-0.956 1.463-2.92 3.413-4.875 1.901-1.908 3.764-2.881 4.387-3.19 0.356-0.176 1.469-0.71 3.027-1.137 1.794-0.492 3.359-0.617 4.49-0.63-0.554 1.436-1.177 2.637-1.747 3.596-0.98 1.646-1.917 2.767-2.479 3.433-1.306 1.548-2.455 2.573-2.762 2.844-0.975 0.858-2.315 1.903-4.043 2.905 0.889-0.794 2.013-1.863 3.231-3.21 0.447-0.494 1.218-1.35 2.091-2.499 0.899-1.182 2.03-2.837 3.129-4.977-1.257 0.199-2.836 0.614-4.49 1.483-0.49 0.258-1.51 0.831-2.64 1.788-0.522 0.442-1.635 1.446-2.702 3.007-0.848 1.24-1.308 2.306-1.605 3.006-0.413 0.972-0.65 1.753-0.874 2.499-0.354 1.182-0.583 2.195-0.731 2.945 1.459-0.234 2.643-0.412 3.433-0.528 2.318-0.341 2.963-0.405 4.124-0.711 1.018-0.268 1.835-0.488 2.844-1.016 1.461-0.763 2.367-1.669 2.6-1.909 1.062-1.091 1.58-2.146 2.133-3.271 0.248-0.504 0.696-1.425 1.057-2.681 0.314-1.095 0.679-2.832 0.551-5.049 0.269 1.396 0.619 4.291-0.572 7.588-0.34 0.944-1.738 4.814-5.464 6.948-1.272 0.727-3.001 1.094-6.46 1.828-2.318 0.491-4.258 0.802-5.607 0.995" clip-path="url(#clipPath38)"/>
  </g>
 </g>
</svg>
