<svg width="18" height="18" viewBox="0 0 18 18" fill="none" xmlns="http://www.w3.org/2000/svg">
<path d="M9 0C6.61305 0 4.32387 0.948211 2.63604 2.63604C0.948211 4.32387 0 6.61305 0 9C0 11.3869 0.948211 13.6761 2.63604 15.364C4.32387 17.0518 6.61305 18 9 18C11.3869 18 13.6761 17.0518 15.364 15.364C17.0518 13.6761 18 11.3869 18 9C18 8.5 17.96 8 17.87 7.5C17.6 7 17 7 17 7H15V6C15 5 14 5 14 5H12V4C12 3 11 3 11 3H10V1C10 0 9 0 9 0ZM6.5 3C6.89782 3 7.27936 3.15804 7.56066 3.43934C7.84196 3.72064 8 4.10218 8 4.5C8 4.89782 7.84196 5.27936 7.56066 5.56066C7.27936 5.84196 6.89782 6 6.5 6C6.10218 6 5.72064 5.84196 5.43934 5.56066C5.15804 5.27936 5 4.89782 5 4.5C5 4.10218 5.15804 3.72064 5.43934 3.43934C5.72064 3.15804 6.10218 3 6.5 3ZM3.5 7C3.89782 7 4.27936 7.15804 4.56066 7.43934C4.84196 7.72064 5 8.10218 5 8.5C5 8.89782 4.84196 9.27936 4.56066 9.56066C4.27936 9.84196 3.89782 10 3.5 10C3.10218 10 2.72064 9.84196 2.43934 9.56066C2.15804 9.27936 2 8.89782 2 8.5C2 8.10218 2.15804 7.72064 2.43934 7.43934C2.72064 7.15804 3.10218 7 3.5 7ZM8.5 8C8.89782 8 9.27936 8.15804 9.56066 8.43934C9.84196 8.72064 10 9.10218 10 9.5C10 9.89782 9.84196 10.2794 9.56066 10.5607C9.27936 10.842 8.89782 11 8.5 11C8.10218 11 7.72064 10.842 7.43934 10.5607C7.15804 10.2794 7 9.89782 7 9.5C7 9.10218 7.15804 8.72064 7.43934 8.43934C7.72064 8.15804 8.10218 8 8.5 8ZM13.5 10C13.8978 10 14.2794 10.158 14.5607 10.4393C14.842 10.7206 15 11.1022 15 11.5C15 11.8978 14.842 12.2794 14.5607 12.5607C14.2794 12.842 13.8978 13 13.5 13C13.1022 13 12.7206 12.842 12.4393 12.5607C12.158 12.2794 12 11.8978 12 11.5C12 11.1022 12.158 10.7206 12.4393 10.4393C12.7206 10.158 13.1022 10 13.5 10ZM8 13C8.39782 13 8.77936 13.158 9.06066 13.4393C9.34196 13.7206 9.5 14.1022 9.5 14.5C9.5 14.8978 9.34196 15.2794 9.06066 15.5607C8.77936 15.842 8.39782 16 8 16C7.60218 16 7.22064 15.842 6.93934 15.5607C6.65804 15.2794 6.5 14.8978 6.5 14.5C6.5 14.1022 6.65804 13.7206 6.93934 13.4393C7.22064 13.158 7.60218 13 8 13Z" fill="#EFB90B"/>
</svg>
