<svg width="24" height="22" viewBox="0 0 24 22" fill="none" xmlns="http://www.w3.org/2000/svg">
<path d="M11.9841 0C10.4753 0 9.13276 0.926316 8.63378 2.31579H1.29153V4.63158H3.60826L0.103469 12.7368C-0.454922 15.0526 1.29153 16.2105 4.2617 16.2105C7.23186 16.2105 9.08524 15.0526 8.41992 12.7368L4.91513 4.63158H8.62189C9.01396 5.61579 9.7862 6.36842 10.7961 6.75053V19.6842H0.103469V22H23.8648V19.6842H13.1722V6.73895C14.182 6.36842 14.9543 5.61579 15.3345 4.63158H19.0531L15.5483 12.7368C14.9899 15.0526 16.7364 16.2105 19.7065 16.2105C22.6767 16.2105 24.5301 15.0526 23.8648 12.7368L20.36 4.63158H22.6767V2.31579H15.3463C14.8355 0.926316 13.493 0 11.9841 0ZM11.9841 2.31579C12.2992 2.31579 12.6014 2.43778 12.8242 2.65493C13.047 2.87208 13.1722 3.16659 13.1722 3.47368C13.1722 3.78078 13.047 4.07529 12.8242 4.29244C12.6014 4.50959 12.2992 4.63158 11.9841 4.63158C11.669 4.63158 11.3668 4.50959 11.144 4.29244C10.9212 4.07529 10.7961 3.78078 10.7961 3.47368C10.7961 3.16659 10.9212 2.87208 11.144 2.65493C11.3668 2.43778 11.669 2.31579 11.9841 2.31579ZM4.2617 8.39474L6.04379 12.7368H2.4796L4.2617 8.39474ZM19.7065 8.39474L21.4886 12.7368H17.9244L19.7065 8.39474Z" fill="#EFB90B"/>
</svg>
