<svg width="80" height="18" viewBox="0 0 80 18" fill="none" xmlns="http://www.w3.org/2000/svg">
<path d="M30.233 14V3.81818H31.4659V12.9062H36.1989V14H30.233ZM41.0511 14.1591C40.3617 14.1591 39.7569 13.995 39.2365 13.6669C38.7195 13.3388 38.3151 12.8797 38.0234 12.2898C37.7351 11.6998 37.5909 11.0104 37.5909 10.2216C37.5909 9.42614 37.7351 8.73177 38.0234 8.13849C38.3151 7.54522 38.7195 7.08452 39.2365 6.75639C39.7569 6.42827 40.3617 6.2642 41.0511 6.2642C41.7405 6.2642 42.3438 6.42827 42.8608 6.75639C43.3812 7.08452 43.7855 7.54522 44.0739 8.13849C44.3655 8.73177 44.5114 9.42614 44.5114 10.2216C44.5114 11.0104 44.3655 11.6998 44.0739 12.2898C43.7855 12.8797 43.3812 13.3388 42.8608 13.6669C42.3438 13.995 41.7405 14.1591 41.0511 14.1591ZM41.0511 13.1051C41.5748 13.1051 42.0057 12.9709 42.3438 12.7024C42.6818 12.4339 42.9321 12.081 43.0945 11.6435C43.2569 11.206 43.3381 10.732 43.3381 10.2216C43.3381 9.71117 43.2569 9.23556 43.0945 8.79474C42.9321 8.35393 42.6818 7.99763 42.3438 7.72585C42.0057 7.45407 41.5748 7.31818 41.0511 7.31818C40.5275 7.31818 40.0966 7.45407 39.7585 7.72585C39.4205 7.99763 39.1702 8.35393 39.0078 8.79474C38.8454 9.23556 38.7642 9.71117 38.7642 10.2216C38.7642 10.732 38.8454 11.206 39.0078 11.6435C39.1702 12.081 39.4205 12.4339 39.7585 12.7024C40.0966 12.9709 40.5275 13.1051 41.0511 13.1051ZM49.3848 17.0227C48.818 17.0227 48.3308 16.9498 47.9231 16.804C47.5154 16.6615 47.1757 16.4725 46.9039 16.2372C46.6355 16.0052 46.4217 15.7566 46.2626 15.4915L47.1973 14.8352C47.3033 14.9744 47.4376 15.1335 47.6 15.3125C47.7624 15.4948 47.9844 15.6522 48.2662 15.7848C48.5512 15.9207 48.9241 15.9886 49.3848 15.9886C50.0012 15.9886 50.51 15.8395 50.911 15.5412C51.3121 15.2429 51.5126 14.7756 51.5126 14.1392V12.5881H51.4132C51.327 12.7273 51.2044 12.8996 51.0453 13.1051C50.8895 13.3073 50.6641 13.4879 50.3691 13.647C50.0775 13.8028 49.6831 13.8807 49.1859 13.8807C48.5694 13.8807 48.0159 13.7348 47.5254 13.4432C47.0382 13.1515 46.652 12.7273 46.367 12.1705C46.0853 11.6136 45.9444 10.9375 45.9444 10.142C45.9444 9.35985 46.082 8.67874 46.3571 8.09872C46.6322 7.51539 47.015 7.06463 47.5055 6.74645C47.996 6.42495 48.5628 6.2642 49.2058 6.2642C49.7029 6.2642 50.0974 6.34706 50.389 6.51278C50.684 6.67519 50.9094 6.8608 51.0652 7.0696C51.2243 7.27509 51.3469 7.44413 51.4331 7.5767H51.5524V6.36364H52.6859V14.2188C52.6859 14.875 52.5368 15.4086 52.2385 15.8196C51.9435 16.2339 51.5458 16.5372 51.0453 16.7294C50.5481 16.925 49.9946 17.0227 49.3848 17.0227ZM49.345 12.8267C49.8156 12.8267 50.2134 12.719 50.5382 12.5036C50.863 12.2881 51.1099 11.9782 51.2789 11.5739C51.448 11.1695 51.5325 10.6856 51.5325 10.1222C51.5325 9.57197 51.4496 9.08641 51.2839 8.66548C51.1182 8.24455 50.8729 7.91477 50.5481 7.67614C50.2233 7.4375 49.8223 7.31818 49.345 7.31818C48.8478 7.31818 48.4335 7.44413 48.1021 7.69602C47.774 7.94792 47.527 8.28598 47.3613 8.71023C47.1989 9.13447 47.1177 9.60511 47.1177 10.1222C47.1177 10.6525 47.2006 11.1214 47.3663 11.5291C47.5353 11.9335 47.7839 12.2517 48.112 12.4837C48.4435 12.7124 48.8545 12.8267 49.345 12.8267ZM61.8734 14.1591C61.184 14.1591 60.5791 13.995 60.0588 13.6669C59.5417 13.3388 59.1374 12.8797 58.8457 12.2898C58.5574 11.6998 58.4132 11.0104 58.4132 10.2216C58.4132 9.42614 58.5574 8.73177 58.8457 8.13849C59.1374 7.54522 59.5417 7.08452 60.0588 6.75639C60.5791 6.42827 61.184 6.2642 61.8734 6.2642C62.5628 6.2642 63.166 6.42827 63.6831 6.75639C64.2034 7.08452 64.6078 7.54522 64.8961 8.13849C65.1878 8.73177 65.3336 9.42614 65.3336 10.2216C65.3336 11.0104 65.1878 11.6998 64.8961 12.2898C64.6078 12.8797 64.2034 13.3388 63.6831 13.6669C63.166 13.995 62.5628 14.1591 61.8734 14.1591ZM61.8734 13.1051C62.3971 13.1051 62.8279 12.9709 63.166 12.7024C63.5041 12.4339 63.7543 12.081 63.9167 11.6435C64.0791 11.206 64.1603 10.732 64.1603 10.2216C64.1603 9.71117 64.0791 9.23556 63.9167 8.79474C63.7543 8.35393 63.5041 7.99763 63.166 7.72585C62.8279 7.45407 62.3971 7.31818 61.8734 7.31818C61.3497 7.31818 60.9189 7.45407 60.5808 7.72585C60.2427 7.99763 59.9925 8.35393 59.8301 8.79474C59.6677 9.23556 59.5865 9.71117 59.5865 10.2216C59.5865 10.732 59.6677 11.206 59.8301 11.6435C59.9925 12.081 60.2427 12.4339 60.5808 12.7024C60.9189 12.9709 61.3497 13.1051 61.8734 13.1051ZM71.9371 10.8778V6.36364H73.1104V14H71.9371V12.7074H71.8576C71.6786 13.0952 71.4002 13.425 71.0224 13.6967C70.6445 13.9652 70.1673 14.0994 69.5906 14.0994C69.1133 14.0994 68.689 13.995 68.3178 13.7862C67.9466 13.5741 67.6549 13.2559 67.4428 12.8317C67.2307 12.4041 67.1246 11.8655 67.1246 11.2159V6.36364H68.2979V11.1364C68.2979 11.6932 68.4537 12.1373 68.7653 12.4688C69.0801 12.8002 69.4812 12.9659 69.9684 12.9659C70.2601 12.9659 70.5567 12.8913 70.8583 12.7422C71.1632 12.593 71.4184 12.3643 71.6239 12.0561C71.8327 11.7479 71.9371 11.3551 71.9371 10.8778ZM78.5804 6.36364V7.35795H74.623V6.36364H78.5804ZM75.7765 4.53409H76.9498V11.8125C76.9498 12.1439 76.9978 12.3925 77.0939 12.5582C77.1934 12.7206 77.3193 12.83 77.4718 12.8864C77.6275 12.9394 77.7916 12.9659 77.964 12.9659C78.0932 12.9659 78.1993 12.9593 78.2821 12.946C78.365 12.9295 78.4313 12.9162 78.481 12.9062L78.7196 13.9602C78.6401 13.9901 78.5291 14.0199 78.3865 14.0497C78.244 14.0829 78.0634 14.0994 77.8446 14.0994C77.5132 14.0994 77.1884 14.0282 76.8702 13.8857C76.5553 13.7431 76.2935 13.526 76.0847 13.2344C75.8792 12.9427 75.7765 12.5748 75.7765 12.1307V4.53409Z" fill="#001522"/>
<path d="M15 4L13.59 5.41L16.17 8H6V10H16.17L13.59 12.58L15 14L20 9M2 2H10V0H2C0.9 0 0 0.9 0 2V16C0 17.1 0.9 18 2 18H10V16H2V2Z" fill="#001522"/>
</svg>
