<svg width="102" height="102" viewBox="0 0 102 102" fill="none" xmlns="http://www.w3.org/2000/svg">
<path d="M1 101H101" stroke="#EFB90B" stroke-linecap="round" stroke-linejoin="round"/>
<path d="M22.0195 101L38.501 55.3518V17.2963L46.964 2.37037C47.4455 1.51852 48.3529 1 49.3158 1H51.001" stroke="#EFB90B" stroke-linecap="round" stroke-linejoin="round"/>
<path d="M79.9463 101L63.4648 55.3518V17.2963L55.0019 2.37037C54.5204 1.51852 53.613 1 52.65 1H50.9648" stroke="#EFB90B" stroke-linecap="round" stroke-linejoin="round"/>
<path d="M38.5148 17.2969L18.5703 28.0006H85.0703L63.4592 17.2969H38.5148Z" stroke="#EFB90B" stroke-linecap="round" stroke-linejoin="round"/>
<path d="M64.4222 27.9961L18.5703 55.1998H85.0703L38.5148 27.9961" stroke="#EFB90B" stroke-linecap="round" stroke-linejoin="round"/>
<path d="M63.4606 55.3555L25.8125 90.5036" stroke="#EFB90B" stroke-linecap="round" stroke-linejoin="round"/>
<path d="M38.5234 55.3555L76.1531 90.5036" stroke="#EFB90B" stroke-linecap="round" stroke-linejoin="round"/>
<path d="M79.9414 33.3711V36.6859" stroke="#EFB90B" stroke-linecap="round" stroke-linejoin="round"/>
<path d="M22.0703 33.3711V36.6859" stroke="#EFB90B" stroke-linecap="round" stroke-linejoin="round"/>
<path d="M85.6133 61.9961V65.3109" stroke="#EFB90B" stroke-linecap="round" stroke-linejoin="round"/>
<path d="M16.3125 61.9961V65.3109" stroke="#EFB90B" stroke-linecap="round" stroke-linejoin="round"/>
</svg>
