<svg width="70" height="101" viewBox="0 0 70 101" fill="none" xmlns="http://www.w3.org/2000/svg">
<path d="M49.0833 85.5468V100.501H20.9167V85.5468V85.3213L20.7476 85.172L0.5 67.2918V39.1854C0.5 36.7956 1.8602 34.3463 3.9768 32.4771C6.08913 30.6118 8.8919 29.3828 11.6667 29.3828H58.3333C61.1081 29.3828 63.9109 30.6118 66.0232 32.4771C68.1398 34.3463 69.5 36.7956 69.5 39.1854V67.2918L49.2524 85.172L49.0833 85.3213V85.5468Z" stroke="#EFB90B"/>
<line y1="65.9531" x2="70" y2="65.9531" stroke="#EFB90B"/>
<line x1="20.5859" y1="85.9492" x2="49.4095" y2="85.9492" stroke="#EFB90B"/>
<path d="M22.6457 30.0895V6C22.6457 3.23858 20.4071 1 17.6457 1H17.3516C14.5901 1 12.3516 3.23858 12.3516 6V30.0895" stroke="#EFB90B"/>
<path d="M57.6457 30.0895V6C57.6457 3.23858 55.4071 1 52.6457 1H52.3516C49.5901 1 47.3516 3.23858 47.3516 6V30.0895" stroke="#EFB90B"/>
</svg>
