<svg width="102" height="102" viewBox="0 0 102 102" fill="none" xmlns="http://www.w3.org/2000/svg">
<path d="M22.3009 20.3548H100.8C100.91 20.3548 101 20.4444 101 20.5548V27.6817C101 27.7922 100.91 27.8817 100.8 27.8817H21.3835C21.273 27.8817 21.1835 27.9713 21.1835 28.0817V46.7127C21.1835 46.8963 20.9567 46.9829 20.8344 46.846L1.11901 24.7891C1.05122 24.7132 1.05116 24.5986 1.11888 24.5226L21.7517 1.39154C21.874 1.25443 22.1009 1.34094 22.1009 1.52467V20.1548C22.1009 20.2653 22.1905 20.3548 22.3009 20.3548Z" stroke="#EFB90B"/>
<path d="M79.6991 81.6452L1.2 81.6452C1.08955 81.6452 1 81.5556 1 81.4452V74.3183C1 74.2078 1.08955 74.1183 1.2 74.1183L80.6165 74.1183C80.727 74.1183 80.8165 74.0287 80.8165 73.9183V55.2873C80.8165 55.1037 81.0433 55.0171 81.1656 55.154L100.881 77.2109C100.949 77.2868 100.949 77.4014 100.881 77.4774L80.2483 100.608C80.126 100.746 79.8991 100.659 79.8991 100.475V81.8452C79.8991 81.7347 79.8095 81.6452 79.6991 81.6452Z" stroke="#EFB90B"/>
</svg>
